<svg width="171" height="36" viewBox="0 0 171 36" fill="none" xmlns="http://www.w3.org/2000/svg">
<path fill-rule="evenodd" clip-rule="evenodd" d="M27.8333 18C27.8333 25.0877 22.0877 30.8333 15 30.8333C7.91234 30.8333 2.16666 25.0877 2.16666 18C2.16666 10.9123 7.91234 5.16666 15 5.16666C22.0877 5.16666 27.8333 10.9123 27.8333 18ZM30 18C30 26.2843 23.2843 33 15 33C6.71573 33 0 26.2843 0 18C0 9.71573 6.71573 3 15 3C23.2843 3 30 9.71573 30 18ZM23.2759 11.2759C23.2759 12.1329 22.5812 12.8276 21.7242 12.8276C20.8672 12.8276 20.1725 12.1329 20.1725 11.2759C20.1725 10.4189 20.8672 9.72418 21.7242 9.72418C22.5812 9.72418 23.2759 10.4189 23.2759 11.2759ZM10.4879 19.209C11.1556 21.7009 13.717 23.1797 16.2089 22.512C18.7008 21.8443 20.1796 19.2829 19.5119 16.791C18.8442 14.2991 16.2828 12.8203 13.7909 13.488C11.299 14.1557 9.82015 16.7171 10.4879 19.209ZM8.39503 19.7698C9.37244 23.4175 13.1219 25.5823 16.7696 24.6049C20.4174 23.6274 22.5821 19.878 21.6047 16.2302C20.6273 12.5825 16.8779 10.4177 13.2301 11.3952C9.58236 12.3726 7.41762 16.122 8.39503 19.7698Z" fill="url(#paint0_linear_2311_11)"/>
<path d="M38.5089 28L43.7115 8.20757H50.2148L55.4173 28H51.572L50.4975 23.6457H43.4288L42.3543 28H38.5089ZM44.3053 20.1961H49.621L47.2176 10.5544H46.7087L44.3053 20.1961ZM57.0513 33.655V13.9757H60.5574V15.6721H61.0664C61.3868 15.1255 61.8863 14.6448 62.5649 14.2301C63.2435 13.7966 64.2143 13.5798 65.4772 13.5798C66.6082 13.5798 67.6544 13.8626 68.6157 14.428C69.5771 14.9747 70.3499 15.7852 70.9343 16.8597C71.5186 17.9341 71.8108 19.2348 71.8108 20.7616V21.214C71.8108 22.7409 71.5186 24.0415 70.9343 25.116C70.3499 26.1904 69.5771 27.0104 68.6157 27.5759C67.6544 28.1225 66.6082 28.3958 65.4772 28.3958C64.629 28.3958 63.9127 28.2922 63.3283 28.0848C62.7628 27.8963 62.301 27.6513 61.9429 27.3497C61.6036 27.0292 61.3303 26.7088 61.1229 26.3883H60.614V33.655H57.0513ZM64.4028 25.2856C65.5149 25.2856 66.4292 24.9369 67.1455 24.2394C67.8806 23.5231 68.2482 22.4864 68.2482 21.1292V20.8465C68.2482 19.4893 67.8806 18.4619 67.1455 17.7645C66.4103 17.0482 65.4961 16.69 64.4028 16.69C63.3095 16.69 62.3953 17.0482 61.6601 17.7645C60.925 18.4619 60.5574 19.4893 60.5574 20.8465V21.1292C60.5574 22.4864 60.925 23.5231 61.6601 24.2394C62.3953 24.9369 63.3095 25.2856 64.4028 25.2856ZM74.2338 28V13.9757H77.7399V15.8135H78.2489C78.4751 15.3234 78.8992 14.8616 79.5212 14.428C80.1433 13.9757 81.0858 13.7495 82.3487 13.7495C83.442 13.7495 84.394 14.0039 85.2045 14.5129C86.0339 15.003 86.6748 15.691 87.1272 16.5769C87.5796 17.444 87.8058 18.4619 87.8058 19.6306V28H84.2432V19.9134C84.2432 18.8578 83.9793 18.0661 83.4515 17.5383C82.9425 17.0105 82.2074 16.7466 81.246 16.7466C80.1527 16.7466 79.3045 17.1142 78.7013 17.8493C78.0981 18.5656 77.7965 19.5741 77.7965 20.8747V28H74.2338ZM95.1632 28.3958C94.1642 28.3958 93.2688 28.2262 92.4771 27.8869C91.6854 27.5288 91.0539 27.0198 90.5827 26.3601C90.1303 25.6815 89.9041 24.8615 89.9041 23.9001C89.9041 22.9388 90.1303 22.1377 90.5827 21.4968C91.0539 20.837 91.6948 20.3469 92.5054 20.0265C93.3348 19.6872 94.2773 19.5175 95.3329 19.5175H99.1783V18.7258C99.1783 18.0661 98.9709 17.5289 98.5562 17.1142C98.1415 16.6806 97.4818 16.4638 96.577 16.4638C95.691 16.4638 95.0313 16.6712 94.5977 17.0859C94.1642 17.4817 93.8814 18.0001 93.7495 18.641L90.4696 17.5383C90.6958 16.822 91.0539 16.1717 91.544 15.5873C92.053 14.9841 92.7222 14.5034 93.5516 14.1453C94.3998 13.7683 95.4271 13.5798 96.6335 13.5798C98.4808 13.5798 99.9417 14.0416 101.016 14.9653C102.091 15.8889 102.628 17.2273 102.628 18.9803V24.2112C102.628 24.7767 102.892 25.0594 103.419 25.0594H104.55V28H102.175C101.478 28 100.903 27.8304 100.451 27.4911C99.9982 27.1518 99.772 26.6994 99.772 26.1339V26.1056H99.2348C99.1594 26.3318 98.9898 26.6334 98.7259 27.0104C98.462 27.3685 98.0473 27.689 97.4818 27.9717C96.9163 28.2545 96.1434 28.3958 95.1632 28.3958ZM95.7853 25.5118C96.7843 25.5118 97.5949 25.2385 98.2169 24.6918C98.8578 24.1263 99.1783 23.3818 99.1783 22.4581V22.1754H95.5874C94.9276 22.1754 94.4092 22.3167 94.0322 22.5995C93.6552 22.8822 93.4667 23.2781 93.4667 23.787C93.4667 24.296 93.6647 24.7107 94.0605 25.0311C94.4564 25.3516 95.0313 25.5118 95.7853 25.5118ZM105.352 21.0444V20.592C105.352 19.1217 105.645 17.8682 106.229 16.8314C106.813 15.7758 107.586 14.9747 108.547 14.428C109.528 13.8626 110.593 13.5798 111.742 13.5798C113.024 13.5798 113.995 13.806 114.655 14.2584C115.315 14.7108 115.795 15.182 116.097 15.6721H116.606V13.9757H120.112V30.4882C120.112 31.4495 119.829 32.213 119.264 32.7785C118.698 33.3628 117.944 33.655 117.002 33.655H107.614V30.5447H115.758C116.285 30.5447 116.549 30.262 116.549 29.6965V26.049H116.04C115.852 26.3506 115.588 26.6617 115.249 26.9821C114.909 27.2837 114.457 27.5382 113.891 27.7455C113.326 27.9529 112.61 28.0565 111.742 28.0565C110.593 28.0565 109.528 27.7832 108.547 27.2366C107.586 26.6711 106.813 25.87 106.229 24.8332C105.645 23.7776 105.352 22.5147 105.352 21.0444ZM112.76 24.9463C113.854 24.9463 114.768 24.5976 115.503 23.9001C116.238 23.2027 116.606 22.2225 116.606 20.9596V20.6768C116.606 19.395 116.238 18.4148 115.503 17.7362C114.787 17.0388 113.873 16.69 112.76 16.69C111.667 16.69 110.753 17.0388 110.018 17.7362C109.283 18.4148 108.915 19.395 108.915 20.6768V20.9596C108.915 22.2225 109.283 23.2027 110.018 23.9001C110.753 24.5976 111.667 24.9463 112.76 24.9463ZM123.213 28V13.9757H126.72V15.559H127.229C127.436 14.9935 127.775 14.5788 128.246 14.3149C128.737 14.0511 129.302 13.9191 129.943 13.9191H131.639V17.0859H129.886C128.982 17.0859 128.237 17.3309 127.653 17.821C127.068 18.2923 126.776 19.0274 126.776 20.0265V28H123.213ZM137.599 28.3958C136.6 28.3958 135.704 28.2262 134.913 27.8869C134.121 27.5288 133.489 27.0198 133.018 26.3601C132.566 25.6815 132.34 24.8615 132.34 23.9001C132.34 22.9388 132.566 22.1377 133.018 21.4968C133.489 20.837 134.13 20.3469 134.941 20.0265C135.77 19.6872 136.713 19.5175 137.768 19.5175H141.614V18.7258C141.614 18.0661 141.406 17.5289 140.992 17.1142C140.577 16.6806 139.917 16.4638 139.013 16.4638C138.127 16.4638 137.467 16.6712 137.033 17.0859C136.6 17.4817 136.317 18.0001 136.185 18.641L132.905 17.5383C133.131 16.822 133.489 16.1717 133.98 15.5873C134.489 14.9841 135.158 14.5034 135.987 14.1453C136.835 13.7683 137.863 13.5798 139.069 13.5798C140.916 13.5798 142.377 14.0416 143.452 14.9653C144.526 15.8889 145.063 17.2273 145.063 18.9803V24.2112C145.063 24.7767 145.327 25.0594 145.855 25.0594H146.986V28H144.611C143.913 28 143.339 27.8304 142.886 27.4911C142.434 27.1518 142.208 26.6994 142.208 26.1339V26.1056H141.67C141.595 26.3318 141.425 26.6334 141.161 27.0104C140.898 27.3685 140.483 27.689 139.917 27.9717C139.352 28.2545 138.579 28.3958 137.599 28.3958ZM138.221 25.5118C139.22 25.5118 140.03 25.2385 140.652 24.6918C141.293 24.1263 141.614 23.3818 141.614 22.4581V22.1754H138.023C137.363 22.1754 136.845 22.3167 136.468 22.5995C136.091 22.8822 135.902 23.2781 135.902 23.787C135.902 24.296 136.1 24.7107 136.496 25.0311C136.892 25.3516 137.467 25.5118 138.221 25.5118ZM148.743 28V13.9757H152.249V15.5025H152.758C153.003 15.0312 153.408 14.626 153.973 14.2867C154.539 13.9285 155.284 13.7495 156.207 13.7495C157.206 13.7495 158.007 13.9474 158.611 14.3432C159.214 14.7202 159.676 15.2197 159.996 15.8418H160.505C160.825 15.2386 161.278 14.7391 161.862 14.3432C162.447 13.9474 163.276 13.7495 164.35 13.7495C165.217 13.7495 166 13.938 166.697 14.3149C167.413 14.6731 167.979 15.2292 168.394 15.9832C168.827 16.7183 169.044 17.6514 169.044 18.7824V28H165.481V19.0369C165.481 18.264 165.283 17.6891 164.888 17.3121C164.492 16.9162 163.936 16.7183 163.219 16.7183C162.409 16.7183 161.777 16.9822 161.325 17.51C160.891 18.019 160.675 18.7541 160.675 19.7155V28H157.112V19.0369C157.112 18.264 156.914 17.6891 156.518 17.3121C156.122 16.9162 155.566 16.7183 154.85 16.7183C154.039 16.7183 153.408 16.9822 152.956 17.51C152.522 18.019 152.305 18.7541 152.305 19.7155V28H148.743Z" fill="white"/>
<defs>
<linearGradient id="paint0_linear_2311_11" x1="15" y1="3" x2="15" y2="33" gradientUnits="userSpaceOnUse">
<stop stop-color="#877EFF"/>
<stop offset="0.461458" stop-color="#685DFF"/>
<stop offset="1" stop-color="#3121FF"/>
</linearGradient>
</defs>
</svg>
