<svg width="18" height="18" viewBox="0 0 18 18" fill="none" xmlns="http://www.w3.org/2000/svg">
<path fill-rule="evenodd" clip-rule="evenodd" d="M8.95251 0.0415041H9.04814C10.9718 0.0414934 12.4793 0.0414849 13.6556 0.199626C14.8595 0.361493 15.8095 0.699276 16.5552 1.44495C17.3009 2.19063 17.6387 3.14065 17.8005 4.34459C17.9587 5.52083 17.9587 7.02836 17.9587 8.95203V9.04765C17.9587 10.9713 17.9587 12.4788 17.8005 13.6551C17.6387 14.859 17.3009 15.809 16.5552 16.5547C15.8095 17.3004 14.8595 17.6382 13.6556 17.8C12.4793 17.9582 10.9718 17.9582 9.04814 17.9582H8.95252C7.02885 17.9582 5.52132 17.9582 4.34508 17.8C3.14113 17.6382 2.19111 17.3004 1.44544 16.5547C0.699764 15.809 0.361981 14.859 0.200114 13.6551C0.0419731 12.4788 0.0419816 10.9713 0.0419924 9.04765V8.95202C0.0419816 7.02836 0.0419731 5.52083 0.200114 4.34459C0.361981 3.14065 0.699764 2.19063 1.44544 1.44495C2.19111 0.699276 3.14113 0.361493 4.34508 0.199626C5.52132 0.0414849 7.02885 0.0414934 8.95251 0.0415041ZM4.51164 1.43848C3.4463 1.58171 2.80404 1.85412 2.32932 2.32883C1.85461 2.80355 1.5822 3.44582 1.43897 4.51115C1.41634 4.67945 1.3972 4.85596 1.381 5.0415H4.49057L6.87065 1.30138C5.93109 1.3158 5.16037 1.35126 4.51164 1.43848ZM8.33963 1.29177C8.32414 1.33541 8.30353 1.37799 8.27761 1.41872L5.9722 5.0415H9.90723L12.2661 1.33476C11.3801 1.29209 10.3126 1.2915 9.00033 1.2915C8.77285 1.2915 8.55273 1.29152 8.33963 1.29177ZM13.6655 1.46399L11.3889 5.0415H16.6197C16.6035 4.85596 16.5843 4.67945 16.5617 4.51115C16.4185 3.44582 16.146 2.80355 15.6713 2.32883C15.2234 1.88092 14.6263 1.61312 13.6655 1.46399ZM16.6864 6.2915H10.2597C10.2531 6.29161 10.2464 6.29161 10.2398 6.2915H4.84301C4.83639 6.29161 4.82976 6.29161 4.82313 6.2915H1.31426C1.29236 7.05961 1.29199 7.95163 1.29199 8.99984C1.29199 10.9817 1.29332 12.4052 1.43897 13.4885C1.5822 14.5539 1.85461 15.1961 2.32932 15.6708C2.80404 16.1456 3.4463 16.418 4.51164 16.5612C5.59495 16.7068 7.01847 16.7082 9.00033 16.7082C10.9822 16.7082 12.4057 16.7068 13.489 16.5612C14.5543 16.418 15.1966 16.1456 15.6713 15.6708C16.146 15.1961 16.4185 14.5539 16.5617 13.4885C16.7073 12.4052 16.7087 10.9817 16.7087 8.99984C16.7087 7.95163 16.7083 7.05961 16.6864 6.2915ZM10.1405 8.9342L10.2252 8.98884C10.7417 9.32204 11.1889 9.61054 11.5006 9.88621C11.8322 10.1795 12.1253 10.557 12.1253 11.0832C12.1253 11.6093 11.8322 11.9869 11.5006 12.2801C11.1889 12.5558 10.7417 12.8443 10.2252 13.1775L10.1405 13.2321C9.61874 13.5689 9.16526 13.8615 8.78857 14.0288C8.39664 14.2028 7.89446 14.3282 7.41551 14.0239C6.96163 13.7355 6.82401 13.2434 6.76626 12.81C6.7086 12.3774 6.70863 11.806 6.70866 11.129V11.0374C6.70863 10.3604 6.7086 9.78897 6.76626 9.35631C6.82401 8.92298 6.96163 8.4308 7.41551 8.14245C7.89446 7.83817 8.39664 7.96355 8.78857 8.13757C9.16526 8.30482 9.61874 8.59747 10.1405 8.9342ZM8.04859 9.20958C8.04809 9.20891 8.05198 9.20787 8.06178 9.20847C8.054 9.21055 8.04909 9.21025 8.04859 9.20958ZM8.08125 9.21087C8.11471 9.21657 8.17689 9.23365 8.28131 9.28002C8.55763 9.40271 8.92819 9.63958 9.50644 10.0127C10.0759 10.3801 10.4408 10.6176 10.6725 10.8226C10.8859 11.0113 10.8762 11.0775 10.8754 11.0828C10.8762 11.0882 10.8859 11.1551 10.6725 11.3438C10.4408 11.5487 10.0759 11.7862 9.50644 12.1537C8.92819 12.5268 8.55763 12.7636 8.28131 12.8863C8.17689 12.9327 8.11471 12.9498 8.08124 12.9555C8.06273 12.9198 8.03046 12.8337 8.00531 12.6449C7.96001 12.305 7.95866 11.8183 7.95866 11.0832C7.95866 10.3481 7.96001 9.86135 8.00531 9.52142C8.03046 9.33269 8.06274 9.24651 8.08125 9.21087ZM8.04859 12.9568C8.0491 12.9561 8.054 12.9558 8.06178 12.9579C8.05197 12.9585 8.04808 12.9574 8.04859 12.9568ZM8.09205 12.9733C8.09491 12.9757 8.09616 12.9774 8.09607 12.9776C8.09597 12.9778 8.09454 12.9766 8.09205 12.9733ZM8.09205 9.19301C8.09455 9.18969 8.09598 9.18849 8.09607 9.18872C8.09616 9.18896 8.09491 9.19061 8.09205 9.19301Z" fill="#877EFF"/>
</svg>
